<?xml version="1.0" encoding="utf-8"?>
<!-- Generator: Adobe Illustrator 27.5.0, SVG Export Plug-In . SVG Version: 6.00 Build 0)  -->
<svg version="1.1" id="_x31_" xmlns="http://www.w3.org/2000/svg" xmlns:xlink="http://www.w3.org/1999/xlink" x="0px" y="0px"
	 viewBox="0 0 451 356" style="enable-background:new 0 0 451 356;" xml:space="preserve">
<g>
	<g>
		<path style="fill:#EDB984;" d="M241.968,66.282c1.475,0.479,5.985,5.352,8.327,8.404l-7.763,6.787
			c-6.074-2.541-8.831-9.582-7.855-10.794C235.655,69.467,240.492,65.804,241.968,66.282z"/>
		<path style="fill:#EDB984;" d="M248.743,63.089c0.278,0.537-1.005,5.104,0.872,10.904l-5.267-1.815
			c-0.509-1.589,0.756-8.532,1.583-9.412C246.851,61.786,248.336,62.304,248.743,63.089z"/>
		<path style="fill:#EDB984;" d="M239.992,59.777c0.339,0.427,2.376,4.534,3.982,9.074l-3.919-0.129c0,0-2.737-7.161-2.386-8.211
			C238.02,59.461,239.496,59.152,239.992,59.777z"/>
		<path style="fill:#EDB984;" d="M234.597,61.332c0.594,0.133,3.273,4.587,5.688,8.783l-4.004,0.333c0,0-4.017-6.595-3.841-7.649
			C232.616,61.744,234.003,61.199,234.597,61.332z"/>
		<path style="fill:#EDB984;" d="M238.254,78.565c-5.521-3.231-8.682-11.409-8.447-12.127c0.234-0.719,1.36-2.354,1.993-1.573
			c0.633,0.781,2.874,5.265,3.894,5.833c1.02,0.569,7.644,3.275,7.615,3.464C243.279,74.35,238.254,78.565,238.254,78.565z"/>
	</g>
	<g>
		<path style="fill:#EDB984;" d="M388.962,55.883c-1.17,1.018-3.411,7.269-4.371,10.994l9.801,3.204
			c4.594-4.717,4.372-12.275,2.999-13.008C396.018,56.341,390.132,54.865,388.962,55.883z"/>
		<path style="fill:#EDB984;" d="M381.478,55.599c-0.046,0.603,2.924,4.303,3.469,10.375l4.136-3.733
			c-0.154-1.661-4.038-7.554-5.143-8.04C382.708,53.659,381.544,54.717,381.478,55.599z"/>
		<path style="fill:#EDB984;" d="M388.231,49.123c-0.145,0.526-0.41,5.103-0.109,9.909l3.555-1.654c0,0-0.286-7.661-1.021-8.489
			C389.922,48.061,388.443,48.354,388.231,49.123z"/>
		<path style="fill:#EDB984;" d="M393.805,48.441c-0.495,0.355-1.215,5.503-1.793,10.309l3.814-1.262c0,0,1.113-7.641,0.538-8.543
			C395.788,48.044,394.299,48.086,393.805,48.441z"/>
		<path style="fill:#EDB984;" d="M397.19,65.729c3.815-5.135,3.519-13.897,3.022-14.467c-0.497-0.569-2.173-1.633-2.449-0.666
			c-0.276,0.966-0.582,5.969-1.298,6.892c-0.716,0.923-5.75,6.007-5.65,6.169C390.915,63.82,397.19,65.729,397.19,65.729z"/>
	</g>
	<polygon style="fill:#72464E;" points="322.799,243.416 302.171,243.416 303.774,254.46 313.152,254.46 	"/>
	<polygon style="fill:#72464E;" points="311.62,243.348 308.003,243.348 303.547,282.904 307.164,282.904 	"/>
	<path style="fill:#60454A;" d="M82.978,153.039c4.788,0.658,7.299,2.244,7.299,2.244l1.169,2.038
		C89.065,155.362,86.234,153.945,82.978,153.039z"/>
	<path style="fill:#FCF2D6;" d="M250.482,73.025l-9.526,8.169c0,0,16.568,48.108,61.682,71.662l9.182-36.53
		C288.465,111.535,257.469,82.007,250.482,73.025z"/>
	<path style="fill:#EFE0BB;" d="M242.681,79.714l-1.725,1.493c0,0,16.354,48.358,61.033,72.218l3.307-12.704
		C268.501,123.79,249.696,92.638,242.681,79.714z"/>
	<polygon style="fill:#E84B78;" points="203.428,56.041 106.215,68.617 114.598,113.93 214.407,98.759 	"/>
	<polygon style="fill:#E84B78;" points="160.71,96.502 160.71,131.297 171.888,94.368 	"/>
	<path style="fill:#A6BC4A;" d="M62.299,147.765c-0.699,4.491-6.887,3.294-6.887,3.294s-5.29,1.497-4.891-4.691
		c0.399-6.188,6.488-7.785,7.086-6.687c0,0,7.585-6.787,15.171-4.092c0,0,6.209-1.905,6.487,0.599
		C79.865,141.577,62.299,147.765,62.299,147.765z"/>
	<g>
		<path style="fill:#72464E;" d="M332.884,242.301l-30.507-0.732c-1.906-0.046-3.452,1.302-3.452,3.011s1.545,3.131,3.452,3.177
			l30.507,0.732c1.906,0.046,3.452-1.302,3.452-3.011S334.79,242.346,332.884,242.301z"/>
		<polygon style="fill:#72464E;" points="344.344,220.326 338.324,220.326 328.004,235.896 334.024,235.896 		"/>
		<path style="fill:#FFB850;" d="M338.449,234.222l-39.73-1.433c-3.619-0.131-6.667,2.487-6.807,5.847
			c-0.141,3.36,2.679,6.19,6.298,6.32l39.73,1.433c3.619,0.131,6.667-2.488,6.807-5.847
			C344.888,237.182,342.068,234.352,338.449,234.222z"/>
		<path style="fill:#FFB850;" d="M387.771,152.038l-30.01-1.729c-1.557-0.09-2.98,0.717-3.609,2.047l-31.542,66.687
			c-1.115,2.357,0.702,5.135,3.463,5.294l30.01,1.729c1.557,0.09,2.98-0.717,3.609-2.047l31.542-66.687
			C392.348,154.975,390.531,152.197,387.771,152.038z"/>
		<path style="fill:#FCD163;" d="M384.574,153.882l-14.617-0.842c-1.031,2.751-1.895,5.688-2.546,8.773
			c-2.673,12.662-1.128,24.526,3.381,31.647l16.647-35.197C388.362,156.312,386.858,154.014,384.574,153.882z"/>
	</g>
	<path style="fill:#5E93A5;" d="M284.372,186.092c0,0-51.708,18.459-58.295,23.849c-6.587,5.39-44.707,66.278-44.707,66.278
		l64.205-42.327l50.176-13.067l3.893-26.349L284.372,186.092z"/>
	<path style="fill:#4C8291;" d="M287.866,208.548l-46.882,13.765l-59.547,53.798c-0.04,0.063-0.067,0.106-0.067,0.106l64.975-41.919
		l72.461-16.967L287.866,208.548z"/>
	<path style="fill:#5E93A5;" d="M225.76,304.065c0,0,110.981-82.635,114.298-90.414c3.318-7.783-45.71-21.292-45.71-21.292
		l-17.665,14.608l1.799,11.339L225.76,304.065z"/>
	<path style="fill:#4C8291;" d="M286.703,183.996l-12.108,5.553c13.468,9.157,25.41,18.678,37.468,30.775l-85.947,83.161
		l-0.356,0.58c0,0,111.886-81.585,115.203-89.364C344.281,206.919,286.703,183.996,286.703,183.996z"/>
	<path style="fill:#FCF2D6;" d="M277.286,187.689c23.954,18.564,66.971,30.442,66.971,30.442s12.268-76.411-3.992-101.705
		c-2.695-4.192-29.443-0.998-35.42,1.778C294.743,122.897,301.24,165.831,277.286,187.689z"/>
	<path style="fill:#EFE0BB;" d="M336.413,114.781c-7.944,8.407-13.612,30.425-13.612,56.265c0,16.435,2.295,31.32,6.008,42.145
		c9.13,3.192,15.449,4.939,15.449,4.939s12.268-76.411-3.992-101.705C339.752,115.627,338.362,115.098,336.413,114.781z"/>
	<path style="fill:#FCF2D6;" d="M383.945,66.213l11.414,3.502c0,0-12.975,48.906-51.701,81.044
		c-16.036,5.833-29.215-30.4-13.179-36.233C358.83,106.844,378.536,76.225,383.945,66.213z"/>
	<path style="fill:#EFE0BB;" d="M326.263,139.922c2.275,9.49,11.438,13.971,17.995,11.586
		c38.726-32.138,51.102-81.793,51.102-81.793C377.943,107.044,333.927,143.124,326.263,139.922z"/>
	<polygon style="fill:#CCBF9B;" points="204.079,200.71 79.266,203.957 215.305,307.794 217.401,305.962 	"/>
	<polygon style="fill:#D3C9A9;" points="201.806,201.662 77.27,203.957 92.741,301.969 215.305,307.794 	"/>
	<path style="fill:#CCBF9B;" d="M158.227,232.637c20.631,8.229,38.313,19.342,51.524,31.488l-7.945-62.463L77.27,203.957
		l2.744,17.385C101.622,217.767,129.781,221.292,158.227,232.637z"/>
	<polygon style="fill:#D3C9A9;" points="259.494,288.293 263.016,285.959 249.539,186.79 245.722,186.952 	"/>
	<polygon style="fill:#D3C9A9;" points="129.345,188.809 75.338,202.978 75.86,205.779 202.5,202.338 256.825,184.994 256.825,182 	
		"/>
	<polygon style="fill:#E8E1C8;" points="129.345,185.815 75.338,202.978 202.143,199.641 256.825,182 	"/>
	<polygon style="fill:#D3C9A9;" points="213.908,185.628 173.704,186.287 153.367,196.199 193.571,195.539 	"/>
	<polygon style="fill:#D3C9A9;" points="160.87,191.356 129.388,191.087 153.776,196.237 185.866,195.666 	"/>
	<polygon style="fill:#C7D3D3;" points="174.278,159.756 142.145,180.702 170.441,183.247 200.458,158.98 	"/>
	<polygon style="fill:#D1DBDB;" points="174.409,161.165 152.649,175.272 167.148,180.702 195.743,160.79 	"/>
	<polygon style="fill:#C7D3D3;" points="180.555,160.372 173.314,165.066 180.775,165.037 187.654,160.247 	"/>
	<polygon style="fill:#B6C1C1;" points="200.478,158.979 167.497,181.9 170.441,183.247 201.357,161.165 	"/>
	<path style="fill:#9DA8A8;" d="M134.769,150.528l-16.956,3.6c-1.052,0.223-1.43,1.531-0.658,2.281l24.991,24.293l28.296,2.545
		l-31.475-31.475C137.868,150.674,136.288,150.206,134.769,150.528z"/>
	<path style="fill:#B6C1C1;" d="M135.523,152.371l30.477,30.477l4.442,0.4l-31.475-31.475c-1.098-1.098-2.678-1.566-4.197-1.244
		l-2.374,0.504C133.557,151.062,134.681,151.529,135.523,152.371z"/>
	<path style="fill:#FF768D;" d="M252.407,161.759c1.418-3.486-13.833-9.689-15.251-6.203l-5.393,13.261
		c-2.102,5.169,13.149,11.371,15.251,6.202L252.407,161.759z"/>
	<path style="fill:#EA4762;" d="M241.333,154.702c0.458,1.927,0.721,4.069,0.721,6.338c0,6.699-2.23,12.368-5.304,14.279
		c4.027,1.95,9.113,2.53,10.264-0.299l5.393-13.261C253.4,159.316,246.214,155.545,241.333,154.702z"/>
	<path style="fill:#BF264F;" d="M251.445,160.96c-0.191-2.866-10.505-7.116-12.966-5.439
		C238.286,159.538,248.574,163.777,251.445,160.96z"/>
	<path style="fill:#EA4762;" d="M252.696,162.971l-1.242-0.476l-0.977,2.18c0.14,0.035,0.28,0.061,0.417,0.113l0.395,0.151
		c1.907,0.73,2.86,2.867,2.131,4.774c-0.73,1.907-2.867,2.86-4.774,2.13l-0.395-0.151c-0.269-0.103-0.513-0.24-0.743-0.395
		l-0.987,2.202c0.109,0.052,0.208,0.118,0.323,0.163l1.534,0.587c2.47,0.946,5.24-0.29,6.186-2.761l0.893-2.333
		C256.402,166.687,255.167,163.917,252.696,162.971z"/>
	<g>
		<path style="fill:#60454A;" d="M92.184,173.857l-0.983-0.683c2.963-4.264,6.19-9.492,4.832-12.09
			c-0.725-1.387-2.79-2.49-6.237-2.49c-7.094,0-11.9-0.298-13.474-2.845c-0.806-1.305-1.005-2.604,0.192-4.996l1.071,0.536
			c-0.995,1.991-1.202,3.407-0.632,4.331c1.246,2.016,6.307,2.176,12.793,2.176c3.983,0,6.387,0.894,7.348,2.734
			C98.421,163.068,96.999,166.929,92.184,173.857z"/>
	</g>
	<g>
		<path style="fill:#60454A;" d="M91.842,158.545c-1.339-1.274-1.767-2.335-1.677-4.064c0.177-3.389,3.136-7.319,8.797-11.681
			l0.292,0.379c-5.295,4.08-7.905,8.442-8.061,11.424c-0.071,1.364,0.605,2.515,1.679,3.537L91.842,158.545z"/>
	</g>
	<g>
		<path style="fill:#60454A;" d="M77.615,151.127l-1.19-0.137c0.23-1.996,0.073-4.654-1.987-5.977
			c-1.76-1.13-6.556-2.788-17.131,3.601l-0.36-0.313c10.575-6.389,15.701-5.861,18.138-4.295
			C77.127,145.317,78.002,147.78,77.615,151.127z"/>
	</g>
	<g>
		<path style="fill:#60454A;" d="M76.974,152.72l-1.133-0.388c1.844-5.387,6.549-8.234,13.606-8.234v0.401
			C84.916,144.499,79.075,146.583,76.974,152.72z"/>
	</g>
	<path style="fill:#E06244;" d="M104.299,165.971c-7.353,2.154-14.118,5.231-20.373,9.111l8.833,16.397
		c6.835-1.673,12.903-4.213,17.873-7.993L104.299,165.971z"/>
	<path style="fill:#D15037;" d="M109.003,178.98c-0.87,2.022-2.241,3.608-4.098,4.482c-5.536,2.605-13.192-2.016-17.099-10.32
		c-0.04-0.084-0.07-0.169-0.109-0.254c-1.275,0.703-2.536,1.428-3.771,2.194l8.833,16.398c6.835-1.673,12.903-4.213,17.873-7.993
		L109.003,178.98z"/>
	<path style="fill:#544444;" d="M241.882,159.449c2.681,1.967,7.235,3.115,8.886,1.495c-0.044-0.657-0.729-1.398-1.73-2.104
		c-0.444-0.021-0.893-0.036-1.353-0.036C245.53,158.805,243.533,159.044,241.882,159.449z"/>
	<path style="fill:#E8E1C8;" d="M226.134,304.514c0,0-6.064-2.695-7.411-6.288c0,0,7.745,1.683,9.542,3.18
		C230.062,302.904,226.134,304.514,226.134,304.514z"/>
	<path style="fill:#EFE0BB;" d="M330.884,114.405c-5.945-0.026-13.485,0.814-19.124,1.907c-0.388-0.08-0.787-0.186-1.182-0.281
		c-0.256,1.984,0.066,3.854,1.096,5.444c3.642,5.62,14.48,5.66,24.207,0.087c7.212-4.131,11.777-10.185,12.177-15.332
		C342.718,109.809,336.965,112.7,330.884,114.405z"/>
	<path style="fill:#77383F;" d="M316.611,96.963c-0.998-10.18,6.887-13.075,6.887-13.075s3.892-5.689,8.683-5.49
		c4.791,0.2,4.192,5.19,4.192,5.19s4.392-1.497,5.789,1.198c1.397,2.695-1.397,7.386-1.397,7.386s2.994-0.2,2.595,2.895
		c-0.399,3.094-4.491,4.491-4.491,4.491s-8.104,6.389-8.344,13.176l-2.002-6.769L316.611,96.963z"/>
	<path style="fill:#D27558;" d="M330.783,100.855l-0.301,13.791c0,0-2.394,4.674-9.181,5.971c-6.787,1.298-7.187-4.398-7.187-4.398
		l1.798-9.874L330.783,100.855z"/>
	<path style="fill:#EDB984;" d="M310.223,110.437c0.42,1.921,10.38,4.492,12.676,3.194c2.296-1.297,9.781-13.075,8.683-18.065
		c-1.098-4.99-4.963-8.686-7.685-8.584C318.607,87.182,309.524,107.243,310.223,110.437z"/>
	<path style="fill:#77383F;" d="M331.831,90.65c-5.392,6.919-5.842,13.98-5.842,13.98l3.301,0.706l1.474,4.376l4.26-14.331
		L331.831,90.65z"/>
	<path style="fill:#EDB984;" d="M331.698,104.52c1.152-1.912,1.263-3.958,0.248-4.57c-1.015-0.612-2.772,0.443-3.924,2.355
		c-1.152,1.912-1.263,3.958-0.248,4.57C328.789,107.487,330.546,106.433,331.698,104.52z"/>
	<path style="fill:#D27558;" d="M330.766,104.493c0.733-1.216,0.823-2.506,0.201-2.881c-0.622-0.375-1.72,0.308-2.452,1.524
		c-0.733,1.216-0.823,2.506-0.202,2.881C328.935,106.391,330.033,105.709,330.766,104.493z"/>
	<path style="fill:#EDB984;" d="M329.361,105.536c0.445-0.739,0.5-1.522,0.122-1.75c-0.378-0.227-1.045,0.187-1.49,0.926
		c-0.445,0.739-0.5,1.522-0.122,1.75C328.249,106.689,328.916,106.275,329.361,105.536z"/>
	<path style="fill:#D3C9A9;" d="M246.93,184.038c-0.143-0.742-5.263-0.76-11.436-0.041c-6.173,0.72-11.062,1.905-10.919,2.648
		c0.143,0.742,5.263,0.76,11.436,0.041C242.184,185.966,247.073,184.78,246.93,184.038z"/>
	<path style="fill:#D3C9A9;" d="M115.213,196.74c-0.183-0.736-5.297-0.844-11.421-0.242c-6.125,0.601-10.941,1.685-10.758,2.421
		c0.183,0.735,5.297,0.844,11.422,0.243C110.58,198.559,115.397,197.475,115.213,196.74z"/>
	<path style="fill:#A6BC4A;" d="M82.517,153.266c4.749,2.046,2.046,6.868-2.119,7.891c-4.164,1.023-5.626-0.73-5.626-0.73
		s-5.334,0.95-7.014-4.165c-1.681-5.114,4.749-8.986,4.749-8.986s2.046-6.137,7.379-7.964c5.334-1.826,10.813-0.073,10.813-0.073
		s1.68-3.142,5.114-2.923c3.434,0.219,4.603-4.676,2.338-6.21c0,0,5.407-0.292,5.626,5.334c0.219,5.626-2.996,5.699-2.996,5.699
		s4.019,4.164-0.365,6.649c-4.384,2.484-5.845,2.046-5.845,2.046s-1.304,3.578-6.137,4.384
		C84.927,154.8,82.517,153.266,82.517,153.266z"/>
	<path style="fill:#60454A;" d="M61.65,142.475c2.495,1.597,4.292,1.846,4.292,1.846l1.347-0.499
		C65.407,143.802,63.527,143.344,61.65,142.475z"/>
	<path style="fill:#60454A;" d="M65.905,139.194c-2.04,3.081-2.036,4.255-2.036,4.255l0.599,0.465
		C64.335,143.03,64.693,141.581,65.905,139.194z"/>
	<path style="fill:#B6C1C1;" d="M141.855,168.422c-1.739-1.69-4.203-2.925-5.503-2.758c-1.3,0.167-0.944,1.672,0.795,3.363
		c1.739,1.69,4.203,2.925,5.503,2.758C143.95,171.618,143.594,170.112,141.855,168.422z"/>
	<path style="fill:#544444;" d="M247.081,161.581c6.275,1.299,8.908-6.704,7.896-9.944c-1.012-3.24-3.693-3.403-3.01,2.316
		C252.844,161.294,247.081,161.581,247.081,161.581z"/>
	<path style="fill:#544444;" d="M250.855,150.978c0.376-2.307-0.536-4.927-1.661-5.976c-1.929-1.799-3.879-0.291-2.106,1.298
		C248.416,147.489,250.102,147.908,250.855,150.978z"/>
	<path style="fill:#98A838;" d="M103.777,135.439c-0.175-4.485-3.639-5.206-5.04-5.316c1.123,0.723,2.152,1.928,2.541,3.945
		c1.02,5.286-5.848,8.313-5.848,8.313s-2.806,5.829-8.328,6.966c-5.522,1.137-10.736-1.296-10.736-1.296s-2.064,2.904-5.443,2.252
		c-0.761-0.147-1.435-0.012-2.008,0.291c-1.072,1.476-1.808,3.354-1.209,5.451c0.039,0.04,0.07,0.085,0.112,0.122
		c0,0-0.034-0.003-0.085-0.009c0.011,0.035,0.013,0.068,0.025,0.103c1.68,5.114,7.014,4.165,7.014,4.165s1.461,1.753,5.626,0.73
		c3.992-0.98,6.622-5.445,2.653-7.616c0.889,0.411,2.841,1.099,5.384,0.675c4.833-0.806,6.137-4.384,6.137-4.384
		s1.461,0.438,5.845-2.046c4.384-2.484,0.365-6.649,0.365-6.649S103.997,141.065,103.777,135.439z"/>
	<path style="fill:#98A838;" d="M79.266,136.188c-0.143-1.292-1.866-1.408-3.5-1.219c-1.406,3.375-4.899,4.636-5.473,3.875
		c0,0-6.511,7.823-14.409,6.267c0,0-3.471,1.647-5.363,1.296c-0.373,6.14,4.891,4.652,4.891,4.652s6.188,1.198,6.887-3.294
		C62.299,147.765,79.865,141.577,79.266,136.188z"/>
	<path style="fill:#98A838;" d="M71.989,137.204c-0.202-0.447-0.645-0.776-1.224-0.999c-0.623,0.897-1.858,1.76-3.464,2.295
		c-1.815,0.604-3.607,0.625-4.786,0.171c-0.427,0.614-0.575,1.243-0.326,1.796c0.613,1.358,3.304,1.729,6.01,0.828
		C70.905,140.394,72.602,138.563,71.989,137.204z"/>
	<path style="fill:#98A838;" d="M85.139,143.613c-0.32-0.373-0.837-0.564-1.455-0.616c-0.347,1.036-1.29,2.211-2.682,3.174
		c-1.572,1.089-3.287,1.612-4.546,1.507c-0.237,0.709-0.203,1.355,0.191,1.815c0.969,1.132,3.656,0.733,6.001-0.891
		C84.993,146.978,86.108,144.744,85.139,143.613z"/>
	<path style="fill:#72464E;" d="M281.95,298.812c-0.586-2.41-3.015-3.889-5.425-3.303c-2.41,0.586-3.889,3.015-3.303,5.425
		c0.586,2.41,3.015,3.889,5.425,3.303C281.057,303.651,282.536,301.223,281.95,298.812z"/>
	<path style="fill:#72464E;" d="M308.299,298.812c-0.586-2.41-3.015-3.889-5.425-3.303c-2.41,0.586-3.889,3.015-3.303,5.425
		c0.586,2.41,3.015,3.889,5.425,3.303C307.406,303.651,308.885,301.223,308.299,298.812z"/>
	<path style="fill:#72464E;" d="M334.848,298.812c-0.586-2.41-3.015-3.889-5.425-3.303s-3.889,3.015-3.303,5.425
		s3.015,3.889,5.425,3.303C333.955,303.651,335.434,301.223,334.848,298.812z"/>
	<polygon style="fill:#72464E;" points="306.86,288.196 303.405,288.196 281.877,293.785 328.388,293.785 	"/>
	<polygon style="fill:#72464E;" points="310.826,278.948 301.447,278.948 300.18,290.192 309.559,290.192 	"/>
	<polygon style="fill:#EFE0BB;" points="324.854,213.608 322.762,212.922 321.426,215.809 323.298,216.408 	"/>
	<polygon style="fill:#FCF2D6;" points="326.342,217.315 318.607,214.238 312.568,224.136 321.711,227.134 	"/>
	<polygon style="fill:#EFE0BB;" points="324.846,217.781 321.902,216.609 319.603,220.377 323.084,221.518 	"/>
	<polygon style="fill:#EFE0BB;" points="321.934,222.251 316.049,219.983 315.187,221.126 321.576,223.295 	"/>
	<polygon style="fill:#EFE0BB;" points="319.54,223.378 315.013,221.75 314.214,222.922 319.156,224.409 	"/>
	<path style="fill:#A6BC4A;" d="M75.105,150.6c-0.392-1.068-1.943-1.482-3.465-0.924c-1.522,0.558-2.438,1.876-2.046,2.944
		c0.392,1.068,1.943,1.482,3.465,0.924C74.58,152.986,75.496,151.668,75.105,150.6z"/>
	<g>
		<path style="fill:#5A4949;" d="M322.187,96.971c0.461-0.842,1.237-1.337,1.734-1.106c0.497,0.232,0.525,1.103,0.064,1.945
			c-0.461,0.842-1.237,1.337-1.734,1.105C321.754,98.684,321.726,97.813,322.187,96.971z"/>
		<path style="fill:#754336;" d="M322.279,94.243l3.591,0.06c0.302,0.005,0.549,0.261,0.553,0.573l0.013,1.174
			c0.003,0.311-0.239,0.56-0.541,0.555l-3.591-0.06c-0.302-0.005-0.549-0.261-0.553-0.573l-0.013-1.174
			C321.734,94.486,321.976,94.237,322.279,94.243z"/>
		<path style="fill:#5A4949;" d="M317.347,94.184c0.487-0.829,1.277-1.299,1.765-1.05c0.487,0.249,0.487,1.122,0,1.951
			c-0.487,0.829-1.277,1.299-1.765,1.05C316.86,95.887,316.86,95.013,317.347,94.184z"/>
		<path style="fill:#754336;" d="M319.763,90.18l1.699,2.87c0.143,0.241,0.038,0.56-0.235,0.712l-1.027,0.573
			c-0.273,0.152-0.609,0.08-0.752-0.161l-1.699-2.87c-0.143-0.241-0.038-0.56,0.234-0.712l1.028-0.574
			C319.284,89.866,319.62,89.938,319.763,90.18z"/>
		<path style="fill:#D27558;" d="M319.543,96.441c-2.382,1.42-3.656,2.482-3.316,3.394c0.212,0.569,0.922,0.902,1.543,1.093
			l-0.018,0.045c0,0-2.162-0.286-2.593-1.205C314.731,98.857,316.451,97.851,319.543,96.441z"/>
		<path style="fill:#332B2B;" d="M314.006,103.006c2.203-1.685,6.41,0.05,7.156,0.745c0.745,0.696-0.944,4.771-2.584,5.118
			C318.578,108.869,313.161,103.652,314.006,103.006z"/>
		<path style="fill:#FFFBF0;" d="M314.342,103.24c1.871-1.525,5.578-0.13,6.245,0.455c0.667,0.585-0.693,4.176-2.11,4.522
			C318.477,108.217,313.624,103.824,314.342,103.24z"/>
		<polygon style="fill:#332B2B;" points="319.721,107.843 320.681,106.352 321.112,104.331 320.483,105.612 317.07,104.397 
			319.853,106.319 		"/>
		<path style="fill:#D27558;" d="M315.726,106.89c-0.527-0.425-1.061-0.491-1.192-0.148c-0.131,0.343,0.329,0.554,0.856,0.978
			c0.527,0.425,0.922,0.903,1.053,0.56C316.574,107.938,316.253,107.315,315.726,106.89z"/>
	</g>
	<g>
		<path style="fill:#FCF2D6;" d="M120.7,89.265c-0.368-2.3-0.553-2.485-0.84-4.277c-0.287-1.79-0.511-3.561-0.615-4.401
			c-0.09-0.568,0.134-0.696,0.461-0.748c0.149-0.023,0.303-0.018,0.453-0.042c0.447-0.072,1-0.068,2.342-0.284
			c1.284-0.206,3.272-0.8,4.434-0.988c1.225-0.197,2.767-0.323,3.334-0.415c0.567-0.091,0.669,0.17,0.761,0.737
			c0.101,0.626,0.335,1.324,0.483,2.249c0.043,0.267,0.096,0.598,0.089,1.12c0.028,0.362-0.138,0.481-0.346,0.515
			c-0.208,0.033-0.495-0.043-0.68-0.045c-0.463-0.016-1.357,0.127-2.61,0.328c-0.747,0.12-1.533,0.184-2.28,0.304
			c-0.269,0.043-0.536,0.085-0.801,0.158c-0.443,0.103-1.005,0.224-1.572,0.315c-0.717,0.115-1.409,0.196-1.587,0.224
			c-0.328,0.053-0.275,0.196-0.203,0.644c0.078,0.478,0.203,1.836,0.371,2.88l0.284,1.762c0.053,0.328,0.099,0.627,0.182,0.95
			c0.244-0.009,0.512-0.052,0.812-0.1c0.512-0.052,1.258-0.172,2.095-0.306c1.103-0.177,2.427-0.512,3.143-0.628
			c0.717-0.115,1.149-0.092,1.477-0.145c0.329-0.052,0.413,0.087,0.447,0.297c0.033,0.208-0.003,0.369,0.089,0.934
			c0.09,0.567,0.163,0.832,0.283,1.577c0.064,0.388-0.012,0.493-0.191,0.522c-0.12,0.019-0.343-0.037-0.551-0.004
			c-0.477,0.077-1.115,0.117-2.996,0.419c-1.91,0.307-3.155,0.752-3.485,0.805c-0.208,0.033-0.326,0.053-0.391,0.033
			c-0.09,0.014-0.149,0.024-0.185-0.001l0.48,2.984c0.09-0.015,0.21-0.033,0.325-0.082c0.208-0.033,0.502-0.111,0.831-0.164
			c0.687-0.11,2.174-0.38,3.517-0.595c0.985-0.158,2.576-0.353,3.77-0.545c0.537-0.086,0.98-0.188,1.249-0.231
			c0.508-0.081,0.64,0.171,0.697,0.53c0.029,0.18,0.039,0.424,0.067,0.601c0.096,0.599,0.166,1.231,0.306,2.096
			c0.134,0.835-0.373,0.735-1.328,0.888c-0.984,0.158-3.859,0.558-5.263,0.784c-1.433,0.23-4.309,0.814-4.698,0.876
			c-0.059,0.009-0.115,0.05-0.174,0.06c-0.269,0.043-0.276-0.201-0.32-0.47c-0.082-0.323-0.151-0.742-0.208-1.099
			c-0.057-0.359-0.165-0.647-0.266-1.274l-0.657-4.089C120.947,92.134,121.07,91.564,120.7,89.265z"/>
		<path style="fill:#FCF2D6;" d="M151.232,95.352c0.374,0.431,0.533,0.651,0.556,0.798c0.034,0.211-0.239,0.223-0.539,0.271
			c-0.477,0.077-2.85,0.55-3.357,0.632c-0.508,0.082-0.688-0.656-1.629-1.943c-0.503-0.654-1.641-2.217-2.707-3.699l-1.997-2.711
			c0.314,1.388,0.581,2.662,0.857,3.813c0.405,1.954,0.867,4.056,1.008,4.368c0.05,0.115,0.064,0.205,0.078,0.295
			c0.078,0.477-0.202,0.645-0.784,0.647c-0.73,0.023-3.036,0.733-3.812,0.858c-0.567,0.091-0.694-0.133-0.761-0.553
			c-0.029-0.179-0.037-0.423-0.081-0.692c-0.11-0.686-0.997-4.677-1.385-7.095c-0.12-0.745-0.186-1.348-0.174-1.655
			c0.023-0.617-0.225-2.354-0.528-4.235c-0.349-2.179-0.787-4.527-0.995-5.442c-0.068-0.234-0.107-0.473-0.135-0.653
			c-0.168-1.044,0.208-0.981,0.508-1.03c0.328-0.053,2.131-0.648,3.892-0.932c4.657-0.748,7.153,1.637,7.709,5.1
			c0.287,1.791-0.204,3.308-0.732,4.404c-0.297,0.63-0.688,1.243-1.124,1.772l2.699,3.457
			C149.218,92.921,150.718,94.823,151.232,95.352z M141.518,84.451c0.414-0.282,0.731-0.791,0.582-1.717
			c-0.202-1.253-0.751-1.624-1.228-1.547c-0.21,0.033-0.404,0.155-0.529,0.328c-0.074,0.104,0.239,0.911,0.269,1.673
			c-0.026,0.402-0.005,0.735,0.048,1.063c0.014,0.09,0,0.185,0.014,0.273c0.014,0.092,0.054,0.146,0.068,0.235
			C141.04,84.711,141.299,84.608,141.518,84.451z"/>
		<path style="fill:#FCF2D6;" d="M154.296,85.613c0.331,1.294,1.545,8.662,1.665,9.408c0.121,0.747-0.686,0.877-1.073,0.939
			c-0.359,0.057-0.41-0.455-0.492-0.778c-0.07-0.234-0.185-0.767-0.286-1.395c-0.048-0.298-0.096-0.596-0.113-0.899
			c-0.076-0.662-1.146-8.085-1.913-12.86c-0.331-2.059-0.61-3.606-0.731-3.984c-0.068-0.234-0.103-0.444-0.13-0.623
			c-0.101-0.627,0.098-0.721,0.427-0.773c0.387-0.062,3.207-0.424,4.43-0.62c1.255-0.202,5.726-0.582,6.148,2.044
			c0.565,3.522-4.305,4.855-5.796,5.095c-0.239,0.038-0.388,0.063-0.424,0.038c0.312,0.225,10.397,10.212,11.645,11.113
			c0.761,0.55,0.953,0.794,0.983,0.974c0.014,0.09-0.065,0.162-0.116,0.232c-0.158,0.148-0.745,0.304-1.314,0.394
			c-1.253,0.201-1.193,0.009-1.592-0.569c-0.315-0.44-3.648-3.455-5.412-5.286c-0.883-0.93-2.461-2.36-3.792-3.587l-2.471-2.236
			l0.073,1.215C154.032,84.155,154.165,84.99,154.296,85.613z M155.035,80.105c0.831-0.164,1.865-0.392,2.648-0.671
			c1.539-0.523,2.671-1.101,2.46-2.416c-0.207-1.283-2.784-1.512-3.979-1.32c-0.752,0.092-1.497,0.211-2.095,0.308l-1.014,0.163
			l0.492,4.206C154.055,80.293,154.532,80.216,155.035,80.105z"/>
		<path style="fill:#FCF2D6;" d="M185.4,79.82c0.326,2.031,1.193,11.047-6.837,12.336c-4.03,0.648-6.46-1.901-7.971-4.629
			c-0.87-1.607-1.534-3.459-1.975-5.623c-0.862-5.373,2.177-10.852,6.087-11.48c1.643-0.264,3.066-0.554,4.221-0.035
			C183.321,72.409,185.145,78.238,185.4,79.82z M182.923,80.218c-0.783-4.865-3.757-8.705-7.31-8.134
			c-1.104,0.177-1.955,0.221-2.641,1.281c-0.727,1.004-3.145,3.873-2.391,8.561c0.751,4.685,3.117,9.297,7.564,8.583
			C182.622,89.79,183.709,85.115,182.923,80.218z"/>
		<path style="fill:#FCF2D6;" d="M203.397,86.973c0.376,0.43,0.533,0.65,0.556,0.797c0.034,0.211-0.239,0.224-0.539,0.272
			c-0.477,0.077-2.851,0.55-3.357,0.632c-0.508,0.081-0.688-0.656-1.629-1.943c-0.503-0.653-1.641-2.216-2.708-3.698l-1.995-2.711
			c0.315,1.388,0.581,2.662,0.857,3.813c0.405,1.954,0.867,4.055,1.008,4.368c0.048,0.115,0.064,0.205,0.078,0.295
			c0.076,0.477-0.202,0.645-0.784,0.647c-0.73,0.023-3.036,0.733-3.812,0.858c-0.567,0.091-0.696-0.134-0.762-0.554
			c-0.028-0.179-0.036-0.422-0.079-0.691c-0.11-0.686-0.997-4.677-1.385-7.095c-0.12-0.746-0.186-1.348-0.174-1.656
			c0.023-0.617-0.225-2.353-0.528-4.234c-0.349-2.179-0.787-4.527-0.995-5.442c-0.07-0.234-0.107-0.474-0.137-0.654
			c-0.168-1.044,0.21-0.981,0.509-1.029c0.328-0.053,2.131-0.648,3.89-0.932c4.659-0.748,7.154,1.637,7.71,5.101
			c0.287,1.79-0.204,3.308-0.731,4.404c-0.297,0.629-0.688,1.243-1.124,1.772l2.699,3.457
			C201.383,84.541,202.883,86.444,203.397,86.973z M193.683,76.071c0.415-0.282,0.731-0.791,0.582-1.717
			c-0.202-1.253-0.752-1.624-1.228-1.548c-0.21,0.033-0.404,0.156-0.53,0.329c-0.074,0.104,0.239,0.911,0.269,1.672
			c-0.026,0.402-0.005,0.735,0.048,1.063c0.014,0.09,0,0.185,0.014,0.273c0.014,0.092,0.054,0.146,0.068,0.234
			C193.205,76.331,193.464,76.229,193.683,76.071z"/>
	</g>
</g>
</svg>
